<svg width="50" height="50" viewBox="0 0 50 50" fill="none" xmlns="http://www.w3.org/2000/svg">
<path fill-rule="evenodd" clip-rule="evenodd" d="M7.29167 10.4167C6.73913 10.4167 6.20923 10.6362 5.81853 11.0269C5.42783 11.4176 5.20834 11.9475 5.20834 12.5001C5.20834 13.0526 5.42783 13.5825 5.81853 13.9732C6.20923 14.3639 6.73913 14.5834 7.29167 14.5834H42.7083C43.2609 14.5834 43.7908 14.3639 44.1815 13.9732C44.5722 13.5825 44.7917 13.0526 44.7917 12.5001C44.7917 11.9475 44.5722 11.4176 44.1815 11.0269C43.7908 10.6362 43.2609 10.4167 42.7083 10.4167H7.29167ZM5.20834 25.0001C5.20834 24.4475 5.42783 23.9176 5.81853 23.5269C6.20923 23.1362 6.73913 22.9167 7.29167 22.9167H42.7083C43.2609 22.9167 43.7908 23.1362 44.1815 23.5269C44.5722 23.9176 44.7917 24.4475 44.7917 25.0001C44.7917 25.5526 44.5722 26.0825 44.1815 26.4732C43.7908 26.8639 43.2609 27.0834 42.7083 27.0834H7.29167C6.73913 27.0834 6.20923 26.8639 5.81853 26.4732C5.42783 26.0825 5.20834 25.5526 5.20834 25.0001ZM5.20834 37.5022C5.20834 36.9496 5.42783 36.4197 5.81853 36.029C6.20923 35.6383 6.73913 35.4188 7.29167 35.4188H42.7083C43.2609 35.4188 43.7908 35.6383 44.1815 36.029C44.5722 36.4197 44.7917 36.9496 44.7917 37.5022C44.7917 38.0547 44.5722 38.5846 44.1815 38.9753C43.7908 39.366 43.2609 39.5855 42.7083 39.5855H7.29167C6.73913 39.5855 6.20923 39.366 5.81853 38.9753C5.42783 38.5846 5.20834 38.0547 5.20834 37.5022Z" fill="#1A1A1A"/>
</svg>
