<svg width="40" height="41" viewBox="0 0 40 41" fill="none" xmlns="http://www.w3.org/2000/svg">
<rect width="40" height="40" rx="20" fill="#802AEA"/>
<path d="M30 30.1665L25.1745 25.341M25.1745 25.341C25.9999 24.5156 26.6547 23.5357 27.1014 22.4572C27.5481 21.3787 27.778 20.2228 27.778 19.0555C27.778 17.8882 27.5481 16.7323 27.1014 15.6538C26.6547 14.5754 25.9999 13.5955 25.1745 12.77C24.3491 11.9446 23.3692 11.2899 22.2907 10.8431C21.2122 10.3964 20.0563 10.1665 18.889 10.1665C17.7217 10.1665 16.5658 10.3964 15.4873 10.8431C14.4089 11.2899 13.429 11.9446 12.6035 12.77C10.9365 14.4371 10 16.698 10 19.0555C10 21.413 10.9365 23.674 12.6035 25.341C14.2705 27.008 16.5315 27.9445 18.889 27.9445C21.2465 27.9445 23.5075 27.008 25.1745 25.341Z" stroke="white" stroke-width="1.5" stroke-linecap="round" stroke-linejoin="round"/>
</svg>
