<svg width="24" height="25" viewBox="0 0 24 25" fill="none" xmlns="http://www.w3.org/2000/svg">
<path d="M5.25 4.47363H18.75C19.5801 4.47358 20.3788 4.79119 20.9822 5.3613C21.5856 5.93142 21.948 6.71083 21.995 7.53963L22 7.72363V17.2236C22.0001 18.0538 21.6824 18.8525 21.1123 19.4559C20.5422 20.0593 19.7628 20.4216 18.934 20.4686L18.75 20.4736H5.25C4.41986 20.4737 3.62117 20.1561 3.01777 19.586C2.41437 19.0158 2.052 18.2364 2.005 17.4076L2 17.2236V7.72363C1.99995 6.8935 2.31755 6.0948 2.88767 5.4914C3.45779 4.888 4.23719 4.52563 5.066 4.47863L5.25 4.47363ZM20.5 9.84663L12.35 14.1366C12.258 14.1852 12.1568 14.2142 12.053 14.2216C11.9492 14.229 11.845 14.2147 11.747 14.1796L11.651 14.1376L3.5 9.84763V17.2236C3.50002 17.6628 3.66517 18.0859 3.96268 18.409C4.26019 18.7321 4.6683 18.9315 5.106 18.9676L5.25 18.9736H18.75C19.1894 18.9736 19.6126 18.8083 19.9357 18.5106C20.2588 18.2129 20.4581 17.8045 20.494 17.3666L20.5 17.2236V9.84663ZM18.75 5.97363H5.25C4.81081 5.97365 4.38768 6.1388 4.06461 6.43631C3.74154 6.73382 3.54214 7.14193 3.506 7.57963L3.5 7.72363V8.15263L12 12.6266L20.5 8.15163V7.72363C20.5 7.28428 20.3347 6.86102 20.037 6.53792C19.7392 6.21483 19.3309 6.01553 18.893 5.97963L18.75 5.97363Z" fill="white"/>
</svg>
