<svg width="20" height="20" viewBox="0 0 20 20" fill="none" xmlns="http://www.w3.org/2000/svg">
<path d="M17.071 14.9434C18.9465 13.3014 20 11.075 20 8.75349C20 6.43203 18.9465 4.20558 17.071 2.56363C16.1426 1.75074 15.0403 1.10589 13.8271 0.665925C12.6138 0.225963 11.3133 -0.000488281 10 -0.000488281C8.68667 -0.000488281 7.38621 0.225963 6.17294 0.665925C4.95967 1.10589 3.85736 1.75074 2.92901 2.56363C1.05354 4.20558 0 6.43203 0 8.75349C0 11.075 1.05354 13.3014 2.92901 14.9434L5.10173 16.8171L8.02012 19.2983L8.21011 19.4458C9.31718 20.2308 10.9385 20.1808 11.9813 19.2983L15.4597 16.3358L17.071 14.9434ZM10 12.4997C8.86343 12.4997 7.77341 12.1046 6.96973 11.4013C6.16605 10.6981 5.71455 9.74429 5.71455 8.74974C5.71455 7.7552 6.16605 6.8014 6.96973 6.09815C7.77341 5.3949 8.86343 4.99982 10 4.99982C11.1366 4.99982 12.2266 5.3949 13.0303 6.09815C13.8339 6.8014 14.2854 7.7552 14.2854 8.74974C14.2854 9.74429 13.8339 10.6981 13.0303 11.4013C12.2266 12.1046 11.1366 12.4997 10 12.4997Z" fill="#802AEA"/>
</svg>
