<svg width="16" height="16" viewBox="0 0 16 16" fill="none" xmlns="http://www.w3.org/2000/svg">
<path d="M8.37319 13.88C8.26423 13.9578 8.13371 13.9996 7.99985 13.9996C7.86599 13.9996 7.73548 13.9578 7.62652 13.88C4.40719 11.5853 0.99052 6.86534 4.44452 3.45467C5.39243 2.52141 6.66963 1.99884 7.99985 2C9.33319 2 10.6125 2.52334 11.5552 3.454C15.0092 6.86467 11.5925 11.584 8.37319 13.88Z" stroke="black" stroke-width="1.5" stroke-linecap="round" stroke-linejoin="round"/>
<path d="M8.00033 8.00016C8.35395 8.00016 8.69309 7.85969 8.94313 7.60964C9.19318 7.35959 9.33366 7.02045 9.33366 6.66683C9.33366 6.31321 9.19318 5.97407 8.94313 5.72402C8.69309 5.47397 8.35395 5.3335 8.00033 5.3335C7.6467 5.3335 7.30757 5.47397 7.05752 5.72402C6.80747 5.97407 6.66699 6.31321 6.66699 6.66683C6.66699 7.02045 6.80747 7.35959 7.05752 7.60964C7.30757 7.85969 7.6467 8.00016 8.00033 8.00016Z" stroke="black" stroke-width="1.5" stroke-linecap="round" stroke-linejoin="round"/>
</svg>
