<svg width="126" height="88" viewBox="0 0 126 88" fill="none" xmlns="http://www.w3.org/2000/svg">
<path d="M117.961 39.3261C108.743 30.3621 91.8946 29.1939 84.0928 39.9102V17.8148C84.0928 8.51382 76.6646 0.973633 67.5017 0.973633V34.684C66.0797 34.5352 59.2019 33.8893 53.4502 37.4586C50.6837 39.1744 48.4953 41.3958 46.8852 44.1198C45.4216 40.8482 43.3495 38.4303 40.6604 36.8717C38.1262 35.3103 34.9031 34.5296 30.9884 34.5296C24.6142 34.5296 19.8142 36.9868 16.5856 41.8957V35.8186H0V87.9708H16.5856V61.3092C16.5856 56.3245 17.6618 52.7721 19.8142 50.6659C21.2722 49.2617 23.1922 48.5625 25.5715 48.5625C27.8788 48.5625 29.7185 49.2617 31.1018 50.6659C32.8669 52.4632 33.755 55.8527 33.755 60.8402V87.9708H50.3406V62.0112C50.3406 57.3355 51.1844 53.9066 52.8748 51.7218C54.4075 49.6184 56.5599 48.5653 59.3264 48.5653C61.8606 48.5653 63.8553 49.5004 65.3188 51.3735C68.4672 55.4034 67.5044 71.1269 67.5044 71.1325C67.5044 80.4335 74.9327 87.9736 84.0956 87.9736V79.9083C87.706 85.2861 93.1174 87.9736 100.338 87.9736C126.311 87.9736 133.288 54.2295 117.961 39.3261ZM105.979 69.8463C103.52 72.2642 100.642 73.4718 97.3447 73.4718C93.6541 73.4718 90.5057 72.1828 87.8969 69.6104C86.6851 68.4534 85.7611 67.1363 85.1303 65.6564C84.4359 64.05 84.0928 62.25 84.0928 60.2561C84.0928 58.2734 84.4359 56.4509 85.1247 54.7744C85.7334 53.2832 86.6215 51.9184 87.7779 50.6687C90.2374 48.0963 93.347 46.8129 97.1123 46.8129C100.642 46.8129 103.6 47.9812 105.979 50.3176C108.668 52.89 110.013 56.2038 110.013 60.2561C110.016 64.0809 108.671 67.2739 105.979 69.8463Z" fill="white"/>
</svg>
