<svg width="25" height="25" viewBox="0 0 25 25" fill="none" xmlns="http://www.w3.org/2000/svg">
<g clip-path="url(#clip0_490_21649)">
<path d="M12.5 0C9.18479 0 6.00537 1.31696 3.66117 3.66117C1.31696 6.00537 0 9.18479 0 12.5C0 15.8152 1.31696 18.9946 3.66117 21.3388C6.00537 23.683 9.18479 25 12.5 25C15.8152 25 18.9946 23.683 21.3388 21.3388C23.683 18.9946 25 15.8152 25 12.5C25 9.18479 23.683 6.00537 21.3388 3.66117C18.9946 1.31696 15.8152 0 12.5 0ZM6.25 6.25H18.75C18.9734 6.25 19.1891 6.29844 19.3891 6.3875L12.5 14.4234L5.61094 6.3875C5.81161 6.2963 6.02958 6.2494 6.25 6.25ZM4.6875 17.1875V7.8125L4.69063 7.71406L9.27188 13.0594L4.74062 17.5906C4.70483 17.4593 4.68696 17.3237 4.6875 17.1875ZM18.75 18.75H6.25C6.1125 18.75 5.97656 18.7312 5.84688 18.6969L10.2937 14.25L12.5016 16.825L14.7094 14.25L19.1562 18.6969C19.0249 18.7327 18.8893 18.7505 18.7531 18.75H18.75ZM20.3125 17.1875C20.3125 17.325 20.2937 17.4609 20.2594 17.5906L15.7281 13.0594L20.3094 7.71406L20.3125 7.8125V17.1875Z" fill="black"/>
</g>
<defs>
<clipPath id="clip0_490_21649">
<rect width="25" height="25" fill="white"/>
</clipPath>
</defs>
</svg>
