<svg width="24" height="25" viewBox="0 0 24 25" fill="none" xmlns="http://www.w3.org/2000/svg">
<path d="M22.2071 2.92877C22.0909 2.82843 21.9495 2.7617 21.7982 2.73576C21.6469 2.70982 21.4914 2.72567 21.3484 2.78159L2.349 10.2169C2.07974 10.3216 1.85177 10.5109 1.69943 10.7564C1.54709 11.0019 1.47861 11.2902 1.50431 11.578C1.53001 11.8657 1.64849 12.1374 1.84192 12.352C2.03535 12.5665 2.29326 12.7125 2.57681 12.7678L7.49963 13.7344V19.2235C7.49866 19.5224 7.58751 19.8148 7.75467 20.0627C7.92182 20.3106 8.15958 20.5026 8.43713 20.6138C8.71424 20.7269 9.019 20.7541 9.31176 20.6917C9.60452 20.6294 9.87175 20.4804 10.0787 20.2641L12.4524 17.8022L16.2184 21.0985C16.4901 21.3395 16.8405 21.4728 17.2037 21.4735C17.3628 21.4733 17.521 21.4483 17.6724 21.3994C17.9199 21.3209 18.1425 21.1789 18.318 20.9876C18.4935 20.7963 18.6158 20.5624 18.6728 20.3091L22.4781 3.75471C22.5121 3.60541 22.5049 3.44967 22.4571 3.30417C22.4094 3.15867 22.323 3.0289 22.2071 2.92877ZM16.4753 6.30377L8.07619 12.3188L3.42619 11.4066L16.4753 6.30377ZM8.99963 19.2235V14.7722L11.3237 16.8103L8.99963 19.2235ZM17.2056 19.9735L9.45431 13.1766L20.6106 5.18065L17.2056 19.9735Z" fill="white"/>
</svg>
