<svg width="50" height="50" viewBox="0 0 50 50" fill="none" xmlns="http://www.w3.org/2000/svg">
<path d="M39.0625 4.6875H14.0625C13.2337 4.6875 12.4388 5.01674 11.8528 5.60279C11.2667 6.18884 10.9375 6.9837 10.9375 7.8125V12.5H7.8125C6.9837 12.5 6.18884 12.8292 5.60279 13.4153C5.01674 14.0013 4.6875 14.7962 4.6875 15.625V34.375C4.6875 35.2038 5.01674 35.9987 5.60279 36.5847C6.18884 37.1708 6.9837 37.5 7.8125 37.5H10.9375V42.1875C10.9375 43.0163 11.2667 43.8112 11.8528 44.3972C12.4388 44.9833 13.2337 45.3125 14.0625 45.3125H39.0625C39.8913 45.3125 40.6862 44.9833 41.2722 44.3972C41.8583 43.8112 42.1875 43.0163 42.1875 42.1875V7.8125C42.1875 6.9837 41.8583 6.18884 41.2722 5.60279C40.6862 5.01674 39.8913 4.6875 39.0625 4.6875ZM13.3281 30.0664L10.9844 20.6914C10.9306 20.491 10.9173 20.282 10.9452 20.0764C10.9731 19.8709 11.0416 19.6729 11.1468 19.4941C11.252 19.3153 11.3918 19.1593 11.5579 19.0351C11.7241 18.9109 11.9133 18.821 12.1145 18.7707C12.3158 18.7204 12.525 18.7106 12.7301 18.742C12.9352 18.7734 13.1319 18.8454 13.3089 18.9536C13.4858 19.0619 13.6395 19.2043 13.7608 19.3725C13.8821 19.5408 13.9688 19.7315 14.0156 19.9336L15.3359 25.207L16.5703 22.7344C16.6999 22.4744 16.8994 22.2556 17.1464 22.1027C17.3935 21.9498 17.6782 21.8689 17.9688 21.8689C18.2593 21.8689 18.544 21.9498 18.7911 22.1027C19.0381 22.2556 19.2376 22.4744 19.3672 22.7344L20.6016 25.207L21.9219 19.9336C22.0281 19.5378 22.2855 19.1996 22.6386 18.9918C22.9918 18.784 23.4124 18.7233 23.81 18.8226C24.2075 18.922 24.5501 19.1736 24.7639 19.5231C24.9777 19.8727 25.0457 20.2922 24.9531 20.6914L22.6094 30.0664C22.5315 30.3758 22.3608 30.6538 22.1203 30.8633C21.8797 31.0728 21.5808 31.2037 21.2637 31.2383C21.2072 31.2445 21.1505 31.2477 21.0938 31.248C20.8035 31.2483 20.5189 31.1676 20.2719 31.0151C20.0249 30.8626 19.8252 30.6444 19.6953 30.3848L17.9688 26.9316L16.2422 30.3867C16.0995 30.6725 15.8726 30.9077 15.5921 31.0606C15.3117 31.2135 14.9911 31.2767 14.6736 31.2418C14.356 31.2069 14.0568 31.0755 13.8163 30.8654C13.5757 30.6552 13.4053 30.3764 13.3281 30.0664ZM39.0625 42.1875H14.0625V37.5H28.125C28.9538 37.5 29.7487 37.1708 30.3347 36.5847C30.9208 35.9987 31.25 35.2038 31.25 34.375V32.8125H39.0625V42.1875ZM39.0625 29.6875H31.25V20.3125H39.0625V29.6875ZM39.0625 17.1875H31.25V15.625C31.25 14.7962 30.9208 14.0013 30.3347 13.4153C29.7487 12.8292 28.9538 12.5 28.125 12.5H14.0625V7.8125H39.0625V17.1875Z" fill="black"/>
</svg>
